<svg width="21" height="20" viewBox="0 0 21 20" fill="none" xmlns="http://www.w3.org/2000/svg">
<path fill-rule="evenodd" clip-rule="evenodd" d="M8.63236 4.10445C8.77162 3.96519 8.9605 3.88695 9.15745 3.88695H11.8426C12.0396 3.88695 12.2285 3.96519 12.3677 4.10445C12.507 4.24371 12.5852 4.4326 12.5852 4.62954V5.37214H8.41486V4.62954C8.41486 4.4326 8.49309 4.24371 8.63236 4.10445ZM13.7852 4.62954V5.37214H15.1991L15.2074 5.37219H16.5417C16.8731 5.37219 17.1417 5.64082 17.1417 5.97219C17.1417 6.30356 16.8731 6.57219 16.5417 6.57219H15.7991V15.3703C15.7991 15.8855 15.5944 16.3796 15.2301 16.7439C14.8658 17.1082 14.3717 17.3129 13.8565 17.3129H7.14356C6.62835 17.3129 6.13424 17.1082 5.76994 16.7439C5.40563 16.3796 5.20097 15.8855 5.20097 15.3703V6.57219H4.4584C4.12703 6.57219 3.8584 6.30356 3.8584 5.97219C3.8584 5.64082 4.12703 5.37219 4.4584 5.37219H5.7927L5.80097 5.37214H7.21485V4.62954C7.21485 4.11434 7.41952 3.62023 7.78383 3.25592C8.14813 2.89162 8.64224 2.68695 9.15745 2.68695H11.8426C12.3578 2.68695 12.8519 2.89162 13.2163 3.25592C13.5806 3.62023 13.7852 4.11434 13.7852 4.62954ZM6.40097 6.57219V15.3703C6.40097 15.5672 6.4792 15.7561 6.61847 15.8954C6.75773 16.0346 6.94661 16.1129 7.14356 16.1129H13.8565C14.0535 16.1129 14.2423 16.0346 14.3816 15.8954C14.5209 15.7561 14.5991 15.5672 14.5991 15.3703V6.57219H6.40097ZM11.8427 8.72862C12.174 8.72862 12.4427 8.99725 12.4427 9.32862V13.3564C12.4427 13.6878 12.174 13.9564 11.8427 13.9564C11.5113 13.9564 11.2427 13.6878 11.2427 13.3564V9.32862C11.2427 8.99725 11.5113 8.72862 11.8427 8.72862ZM9.75746 9.32862C9.75746 8.99725 9.48883 8.72862 9.15746 8.72862C8.82608 8.72862 8.55746 8.99725 8.55746 9.32862V13.3564C8.55746 13.6878 8.82608 13.9564 9.15746 13.9564C9.48883 13.9564 9.75746 13.6878 9.75746 13.3564V9.32862Z" fill="white"/>
</svg>
