<svg width="16" height="16" viewBox="0 0 16 16" fill="none" xmlns="http://www.w3.org/2000/svg">
<path fill-rule="evenodd" clip-rule="evenodd" d="M10.5858 3.84592C10.6911 3.74061 10.834 3.68145 10.9829 3.68145C11.0566 3.68145 11.1297 3.69597 11.1978 3.72419C11.2659 3.75241 11.3278 3.79378 11.38 3.84592C11.4321 3.89807 11.4735 3.95997 11.5017 4.0281C11.5299 4.09623 11.5444 4.16926 11.5444 4.243C11.5444 4.31675 11.5299 4.38977 11.5017 4.4579C11.4735 4.52603 11.4321 4.58794 11.38 4.64008L4.65295 11.3671L3.59407 11.6318L3.85879 10.5729L10.5858 3.84592ZM10.9829 2.48145C10.5157 2.48145 10.0676 2.66704 9.73728 2.99739L2.89275 9.84193C2.81585 9.91883 2.7613 10.0152 2.73492 10.1207L2.18736 12.3109C2.13624 12.5154 2.19615 12.7317 2.34518 12.8807C2.49421 13.0297 2.7105 13.0896 2.91497 13.0385L5.10522 12.491C5.21072 12.4646 5.30707 12.41 5.38396 12.3331L12.2285 5.48861C12.3921 5.32503 12.5218 5.13084 12.6104 4.91712C12.6989 4.7034 12.7444 4.47433 12.7444 4.243C12.7444 4.01167 12.6989 3.7826 12.6104 3.56888C12.5218 3.35516 12.3921 3.16097 12.2285 2.99739C12.0649 2.83382 11.8707 2.70406 11.657 2.61554C11.4433 2.52701 11.2142 2.48145 10.9829 2.48145ZM7.76945 11.8564C7.43808 11.8564 7.16945 12.1251 7.16945 12.4564C7.16945 12.7878 7.43808 13.0564 7.76945 13.0564H12.7694C13.1008 13.0564 13.3694 12.7878 13.3694 12.4564C13.3694 12.1251 13.1008 11.8564 12.7694 11.8564H7.76945Z" fill="#0FB6FF"/>
</svg>
